<svg xmlns="http://www.w3.org/2000/svg" xmlns:xlink="http://www.w3.org/1999/xlink" width="250" zoomAndPan="magnify" viewBox="0 0 187.5 187.499992" height="250" preserveAspectRatio="xMidYMid meet" version="1.0"><defs><g/><clipPath id="d069d59869"><path d="M 14.234375 16.671875 L 185 16.671875 L 185 181.980469 L 14.234375 181.980469 Z M 14.234375 16.671875 " clip-rule="nonzero"/></clipPath></defs><g clip-path="url(#d069d59869)"><path fill="#000000" d="M 46.921875 40.625 L 46.921875 40.628906 C 44.96875 42.25 43.167969 43.996094 41.519531 45.855469 C 42.3125 45.039062 43.128906 44.21875 43.976562 43.394531 C 44.722656 42.667969 45.703125 41.746094 46.921875 40.625 M 38.960938 42.171875 C 37.632812 43.359375 36.457031 44.492188 35.429688 45.5625 C 34.402344 46.636719 33.484375 47.671875 32.675781 48.671875 C 34.503906 46.597656 36.601562 44.429688 38.960938 42.171875 M 176.757812 80.832031 L 176.726562 81.179688 L 176.71875 81.535156 L 176.738281 81.890625 L 176.785156 82.25 L 176.871094 82.613281 L 176.988281 82.988281 L 177.152344 83.367188 L 177.355469 83.757812 L 177.609375 84.160156 L 177.910156 84.570312 L 178.269531 84.996094 L 178.683594 85.433594 C 178.136719 84.0625 177.492188 82.53125 176.757812 80.832031 M 99.75 16.730469 L 98.644531 16.738281 C 75.539062 17.738281 55.660156 26.203125 39.007812 42.128906 C 56.496094 26.757812 76.125 18.847656 97.890625 18.394531 C 109.230469 18.472656 118.890625 20.191406 126.867188 23.542969 C 138.796875 28.332031 148.332031 34.085938 155.472656 40.808594 C 160.671875 45.695312 164.542969 50.03125 167.085938 53.816406 C 160.691406 44.789062 151.023438 36.992188 138.078125 30.425781 C 124.003906 23.945312 110.261719 20.703125 96.859375 20.707031 C 78.730469 20.347656 62.09375 26.980469 46.949219 40.601562 C 62.585938 28.09375 80.066406 22.546875 99.386719 23.960938 C 121.84375 26 140.691406 34.058594 155.925781 48.136719 C 164.226562 55.996094 171.171875 66.894531 176.757812 80.824219 C 177.835938 77.285156 178.144531 75.160156 177.675781 74.445312 C 179.894531 81.109375 181.214844 88.03125 181.628906 95.203125 C 183.128906 115.488281 176.800781 134.601562 162.636719 152.546875 C 185.875 126.238281 190.578125 96.914062 176.75 64.574219 C 169.222656 49.136719 159.339844 37.855469 147.09375 30.726562 C 131.785156 21.539062 116.003906 16.875 99.75 16.730469 M 162.609375 152.578125 L 162.027344 153.207031 C 160.261719 155.117188 158.375 157.046875 156.359375 159 L 157.722656 157.90625 L 158.019531 157.652344 C 158.105469 157.59375 158.449219 157.265625 159.054688 156.667969 C 159.558594 156.152344 160.113281 155.554688 160.714844 154.863281 L 161.636719 153.773438 L 162.609375 152.578125 M 41.492188 45.886719 L 40.054688 47.40625 C 23.707031 65.773438 16.421875 86.394531 18.195312 109.269531 C 15.566406 99.433594 15.707031 89.148438 18.609375 78.40625 C 21.414062 67.046875 26.09375 57.148438 32.648438 48.703125 C 21.792969 61.1875 15.835938 77.175781 14.777344 96.660156 C 14.746094 100.175781 15.332031 104.578125 16.535156 109.871094 C 20.769531 124.9375 23.246094 132.933594 23.964844 133.859375 C 28.636719 144.515625 34.136719 152.792969 40.460938 158.6875 C 48.542969 166.265625 57.441406 171.953125 67.160156 175.753906 C 76.964844 179.832031 86.257812 181.792969 95.035156 181.632812 C 107.589844 181.359375 119.390625 179.484375 130.4375 176 C 138.457031 173.132812 147.09375 167.472656 156.339844 159.015625 C 146.773438 166.660156 138.542969 171.550781 131.65625 173.683594 C 118.769531 177.234375 106.871094 178.925781 95.964844 178.753906 C 89.125 179.230469 79.386719 176.742188 66.742188 171.289062 C 57.511719 167.242188 49.882812 162.242188 43.867188 156.292969 C 39.058594 151.460938 35.40625 146.949219 32.90625 142.761719 C 40.351562 151.71875 51.15625 160.269531 65.316406 168.410156 C 72.121094 172.210938 78.898438 174.9375 85.644531 176.585938 C 87.382812 176.980469 88.363281 177.125 88.589844 177.011719 C 88.710938 176.972656 88.699219 176.886719 88.554688 176.757812 C 88.851562 176.964844 89.296875 176.769531 89.894531 176.171875 C 90.394531 175.5625 90.722656 174.960938 90.875 174.371094 C 81.941406 174.164062 68.171875 168.050781 49.574219 156.039062 C 38.960938 148.097656 30.972656 138.78125 25.609375 128.085938 C 20.535156 115.914062 19.4375 101.46875 22.328125 84.742188 C 24.449219 71.761719 30.835938 58.808594 41.492188 45.886719 " fill-opacity="1" fill-rule="nonzero"/></g><g fill="#000000" fill-opacity="1"><g transform="translate(3.494065, 113.594874)"><g><path d="M 155.734375 -24.890625 C 156.378906 -24.835938 156.878906 -24.625 157.234375 -24.25 C 157.597656 -23.875 157.753906 -23.492188 157.703125 -23.109375 C 157.523438 -22.585938 157.253906 -22.253906 156.890625 -22.109375 C 156.523438 -21.972656 156.140625 -21.90625 155.734375 -21.90625 C 151.429688 -22.0625 147.128906 -21.921875 142.828125 -21.484375 C 139.941406 -21.253906 137.015625 -21.085938 134.046875 -20.984375 C 131.109375 -20.898438 128.195312 -20.71875 125.3125 -20.4375 C 124.625 -20.382812 123.941406 -20.332031 123.265625 -20.28125 C 121.847656 -20.28125 121.164062 -19.546875 121.21875 -18.078125 C 121.164062 -16.953125 121.140625 -15.796875 121.140625 -14.609375 C 121.140625 -14.242188 121.140625 -13.921875 121.140625 -13.640625 C 121.140625 -8.148438 121.140625 -2.660156 121.140625 2.828125 C 121.140625 17.554688 121.140625 32.289062 121.140625 47.03125 C 121.140625 49.65625 121 52.269531 120.71875 54.875 C 120.613281 56.238281 119.816406 56.921875 118.328125 56.921875 C 116.578125 56.972656 115.554688 56.34375 115.265625 55.03125 C 114.984375 52.882812 114.84375 50.757812 114.84375 48.65625 C 114.84375 34.039062 114.84375 19.421875 114.84375 4.796875 C 114.84375 0.160156 114.84375 -4.460938 114.84375 -9.078125 C 114.84375 -9.742188 114.84375 -10.390625 114.84375 -11.015625 C 114.84375 -13.179688 114.816406 -15.332031 114.765625 -17.46875 C 114.816406 -19.25 114.019531 -20.019531 112.375 -19.78125 C 111.082031 -19.65625 109.78125 -19.539062 108.46875 -19.4375 C 102.925781 -18.96875 97.347656 -18.425781 91.734375 -17.8125 C 86.734375 -17.25 81.773438 -16.601562 76.859375 -15.875 C 74.984375 -15.59375 73.113281 -15.335938 71.25 -15.109375 C 70.613281 -14.984375 70.007812 -14.867188 69.4375 -14.765625 C 68.875 -14.660156 68.347656 -14.566406 67.859375 -14.484375 C 66.492188 -14.285156 65.835938 -13.503906 65.890625 -12.140625 C 65.835938 -10.023438 65.8125 -7.921875 65.8125 -5.828125 C 65.757812 -2.660156 65.734375 0.476562 65.734375 3.59375 C 65.734375 8.363281 65.734375 13.128906 65.734375 17.890625 C 65.734375 22.992188 65.691406 28.117188 65.609375 33.265625 C 65.691406 34.921875 65.617188 36.535156 65.390625 38.109375 C 65.148438 39.597656 64.207031 40.304688 62.5625 40.234375 C 60.863281 40.304688 59.9375 39.597656 59.78125 38.109375 C 59.550781 36.117188 59.4375 34.132812 59.4375 32.15625 C 59.4375 22.46875 59.410156 12.78125 59.359375 3.09375 C 59.359375 -0.0195312 59.359375 -3.140625 59.359375 -6.265625 C 59.273438 -6.597656 59.273438 -6.96875 59.359375 -7.375 C 59.359375 -8 59.316406 -8.617188 59.234375 -9.234375 C 59.316406 -11.171875 59.15625 -12.304688 58.75 -12.640625 C 58.351562 -12.972656 57.238281 -12.945312 55.40625 -12.5625 C 42.738281 -10.625 30.171875 -8.238281 17.703125 -5.40625 C 15.429688 -4.84375 13.203125 -4.21875 11.015625 -3.53125 C 8.828125 -2.851562 6.6875 -1.972656 4.59375 -0.890625 C 3.457031 -0.222656 2.207031 0.0820312 0.84375 0.03125 C 0.457031 -0.0078125 0.0820312 -0.117188 -0.28125 -0.296875 C -0.65625 -0.484375 -0.960938 -0.769531 -1.203125 -1.15625 C -1.359375 -1.625 -1.320312 -2.023438 -1.09375 -2.359375 C -0.875 -2.691406 -0.597656 -2.972656 -0.265625 -3.203125 C 1.378906 -4.492188 3.164062 -5.460938 5.09375 -6.109375 C 5.195312 -6.109375 5.289062 -6.132812 5.375 -6.1875 C 10.007812 -7.9375 14.734375 -9.257812 19.546875 -10.15625 C 30.648438 -12.601562 41.820312 -14.679688 53.0625 -16.390625 C 54.625 -16.671875 56.234375 -16.953125 57.890625 -17.234375 C 58.628906 -17.390625 59.023438 -17.84375 59.078125 -18.59375 C 59.179688 -20.0625 59.234375 -21.53125 59.234375 -23 C 59.316406 -31.113281 59.359375 -39.253906 59.359375 -47.421875 C 59.359375 -58.515625 59.359375 -69.613281 59.359375 -80.71875 C 59.359375 -85.664062 59.410156 -90.601562 59.515625 -95.53125 C 59.617188 -98.03125 60.914062 -99.070312 63.40625 -98.65625 C 64.726562 -98.5 65.460938 -97.765625 65.609375 -96.453125 C 65.691406 -95.316406 65.734375 -94.179688 65.734375 -93.046875 C 65.734375 -92.890625 65.734375 -92.722656 65.734375 -92.546875 C 65.734375 -74.972656 65.757812 -57.429688 65.8125 -39.921875 C 65.8125 -34.765625 65.8125 -29.613281 65.8125 -24.46875 C 65.8125 -24.175781 65.8125 -23.890625 65.8125 -23.609375 C 65.8125 -23.046875 65.8125 -22.503906 65.8125 -21.984375 C 65.8125 -20.390625 65.988281 -19.425781 66.34375 -19.09375 C 66.707031 -18.757812 67.660156 -18.734375 69.203125 -19.015625 C 71.472656 -19.296875 73.71875 -19.578125 75.9375 -19.859375 C 79.207031 -20.328125 82.515625 -20.753906 85.859375 -21.140625 C 91.921875 -21.804688 98.015625 -22.425781 104.140625 -23 C 106.515625 -23.226562 108.925781 -23.484375 111.375 -23.765625 C 111.601562 -23.765625 111.859375 -23.765625 112.140625 -23.765625 C 112.523438 -23.765625 112.925781 -23.828125 113.34375 -23.953125 C 114.238281 -24.109375 114.710938 -24.675781 114.765625 -25.65625 C 114.816406 -26.945312 114.84375 -28.25 114.84375 -29.5625 C 114.84375 -39.476562 114.84375 -49.367188 114.84375 -59.234375 C 114.84375 -62.503906 114.84375 -65.765625 114.84375 -69.015625 C 114.84375 -69.015625 114.867188 -69.015625 114.921875 -69.015625 C 114.921875 -71.484375 114.921875 -73.96875 114.921875 -76.46875 C 114.921875 -87.132812 114.921875 -97.828125 114.921875 -108.546875 C 114.921875 -108.984375 114.921875 -109.460938 114.921875 -109.984375 C 115.003906 -110.648438 115.046875 -111.304688 115.046875 -111.953125 C 115.085938 -113.285156 115.644531 -114.140625 116.71875 -114.515625 C 117.789062 -114.890625 118.789062 -114.847656 119.71875 -114.390625 C 120.332031 -114.046875 120.691406 -113.539062 120.796875 -112.875 C 120.921875 -111.5625 120.984375 -110.257812 120.984375 -108.96875 C 121.035156 -86.6875 121.085938 -64.40625 121.140625 -42.125 C 121.140625 -38.382812 121.140625 -34.671875 121.140625 -30.984375 C 121.140625 -30.835938 121.140625 -30.671875 121.140625 -30.484375 C 121.140625 -29.972656 121.140625 -29.5 121.140625 -29.0625 C 121.140625 -27.457031 121.195312 -26.3125 121.3125 -25.625 C 121.4375 -24.945312 121.765625 -24.550781 122.296875 -24.4375 C 122.835938 -24.320312 123.675781 -24.304688 124.8125 -24.390625 C 125.195312 -24.390625 125.648438 -24.390625 126.171875 -24.390625 C 131.554688 -24.484375 136.914062 -24.582031 142.25 -24.6875 C 145.414062 -24.820312 148.609375 -24.914062 151.828125 -24.96875 C 153.140625 -25.019531 154.441406 -24.992188 155.734375 -24.890625 Z M 155.734375 -24.890625 "/></g></g></g></svg>