<svg xmlns="http://www.w3.org/2000/svg" xmlns:xlink="http://www.w3.org/1999/xlink" width="500" zoomAndPan="magnify" viewBox="0 0 375 374.999991" height="500" preserveAspectRatio="xMidYMid meet" version="1.0"><defs><g/><clipPath id="4f5dff3316"><path d="M 120.101562 120 L 260 120 L 260 255 L 120.101562 255 Z M 120.101562 120 " clip-rule="nonzero"/></clipPath></defs><rect x="-37.5" width="450" fill="#ffffff" y="-37.499999" height="449.999989" fill-opacity="1"/><rect x="-37.5" width="450" fill="#ffffff" y="-37.499999" height="449.999989" fill-opacity="1"/><g clip-path="url(#4f5dff3316)"><path fill="#000000" d="M 146.855469 139.566406 C 145.253906 140.890625 143.78125 142.316406 142.433594 143.835938 C 143.082031 143.167969 143.753906 142.5 144.445312 141.824219 C 145.054688 141.230469 145.859375 140.476562 146.855469 139.566406 M 140.339844 140.824219 C 139.253906 141.796875 138.289062 142.722656 137.449219 143.597656 C 136.605469 144.472656 135.855469 145.316406 135.195312 146.132812 C 136.691406 144.441406 138.40625 142.671875 140.339844 140.824219 M 253.128906 172.398438 L 253.101562 172.683594 L 253.09375 172.972656 L 253.109375 173.261719 L 253.148438 173.554688 L 253.21875 173.855469 L 253.316406 174.160156 L 253.449219 174.46875 L 253.617188 174.789062 L 253.824219 175.113281 L 254.070312 175.453125 L 254.363281 175.796875 L 254.703125 176.15625 C 254.253906 175.039062 253.730469 173.785156 253.128906 172.398438 M 190.09375 120.050781 L 189.191406 120.054688 C 170.277344 120.875 154.007812 127.785156 140.378906 140.792969 C 154.691406 128.238281 170.757812 121.78125 188.574219 121.410156 C 197.855469 121.472656 205.761719 122.875 212.289062 125.613281 C 222.054688 129.523438 229.859375 134.226562 235.707031 139.714844 C 239.957031 143.703125 243.128906 147.242188 245.210938 150.335938 C 239.976562 142.964844 232.0625 136.597656 221.46875 131.234375 C 209.945312 125.941406 198.699219 123.296875 187.730469 123.296875 C 172.890625 123.003906 159.273438 128.421875 146.878906 139.546875 C 159.675781 129.332031 173.984375 124.800781 189.796875 125.953125 C 208.179688 127.617188 223.605469 134.199219 236.078125 145.699219 C 242.871094 152.117188 248.554688 161.015625 253.128906 172.394531 C 254.007812 169.503906 254.261719 167.765625 253.878906 167.183594 C 255.695312 172.625 256.773438 178.277344 257.113281 184.136719 C 258.34375 200.699219 253.160156 216.308594 241.570312 230.964844 C 260.589844 209.480469 264.4375 185.53125 253.121094 159.121094 C 246.960938 146.515625 238.867188 137.300781 228.847656 131.480469 C 216.316406 123.976562 203.398438 120.167969 190.09375 120.050781 M 241.546875 230.988281 L 241.070312 231.503906 C 239.625 233.0625 238.078125 234.636719 236.429688 236.234375 L 237.546875 235.339844 L 237.789062 235.132812 C 237.859375 235.085938 238.140625 234.816406 238.636719 234.328125 C 239.050781 233.910156 239.503906 233.417969 239.992188 232.855469 L 240.75 231.964844 L 241.546875 230.988281 M 142.410156 143.859375 L 141.234375 145.101562 C 127.851562 160.101562 121.890625 176.941406 123.34375 195.621094 C 121.191406 187.589844 121.304688 179.1875 123.679688 170.417969 C 125.976562 161.140625 129.804688 153.054688 135.171875 146.160156 C 126.289062 156.355469 121.414062 169.410156 120.546875 185.324219 C 120.519531 188.195312 121 191.792969 121.984375 196.113281 C 125.449219 208.417969 127.476562 214.945312 128.066406 215.703125 C 131.890625 224.40625 136.390625 231.164062 141.566406 235.976562 C 148.179688 242.167969 155.464844 246.8125 163.417969 249.914062 C 171.445312 253.246094 179.050781 254.847656 186.238281 254.714844 C 196.511719 254.492188 206.171875 252.960938 215.210938 250.117188 C 221.777344 247.773438 228.84375 243.152344 236.414062 236.246094 C 228.582031 242.488281 221.847656 246.480469 216.210938 248.226562 C 205.660156 251.125 195.921875 252.507812 186.996094 252.367188 C 181.398438 252.753906 173.425781 250.722656 163.078125 246.269531 C 155.523438 242.964844 149.28125 238.882812 144.355469 234.023438 C 140.421875 230.078125 137.429688 226.394531 135.382812 222.972656 C 141.476562 230.289062 150.320312 237.269531 161.910156 243.917969 C 167.480469 247.023438 173.027344 249.246094 178.550781 250.59375 C 179.972656 250.917969 180.773438 251.035156 180.960938 250.945312 C 181.058594 250.910156 181.050781 250.839844 180.929688 250.734375 C 181.175781 250.902344 181.539062 250.742188 182.027344 250.253906 C 182.4375 249.757812 182.707031 249.269531 182.832031 248.785156 C 175.519531 248.617188 164.25 243.625 149.027344 233.8125 C 140.339844 227.328125 133.800781 219.71875 129.410156 210.988281 C 125.257812 201.046875 124.359375 189.25 126.722656 175.589844 C 128.460938 164.992188 133.691406 154.414062 142.410156 143.859375 " fill-opacity="1" fill-rule="nonzero"/></g><g fill="#000000" fill-opacity="1"><g transform="translate(111.314184, 199.291191)"><g><path d="M 127.40625 -20.359375 C 127.9375 -20.316406 128.347656 -20.140625 128.640625 -19.828125 C 128.941406 -19.523438 129.070312 -19.21875 129.03125 -18.90625 C 128.875 -18.488281 128.648438 -18.21875 128.359375 -18.09375 C 128.066406 -17.976562 127.75 -17.921875 127.40625 -17.921875 C 123.894531 -18.046875 120.378906 -17.929688 116.859375 -17.578125 C 114.492188 -17.390625 112.097656 -17.253906 109.671875 -17.171875 C 107.273438 -17.109375 104.894531 -16.957031 102.53125 -16.71875 C 101.957031 -16.675781 101.398438 -16.632812 100.859375 -16.59375 C 99.691406 -16.59375 99.132812 -15.992188 99.1875 -14.796875 C 99.132812 -13.867188 99.109375 -12.921875 99.109375 -11.953125 C 99.109375 -11.660156 99.109375 -11.394531 99.109375 -11.15625 C 99.109375 -6.664062 99.109375 -2.175781 99.109375 2.3125 C 99.109375 14.363281 99.109375 26.421875 99.109375 38.484375 C 99.109375 40.628906 98.992188 42.765625 98.765625 44.890625 C 98.679688 46.015625 98.03125 46.578125 96.8125 46.578125 C 95.375 46.617188 94.539062 46.097656 94.3125 45.015625 C 94.082031 43.265625 93.96875 41.53125 93.96875 39.8125 C 93.96875 27.851562 93.96875 15.890625 93.96875 3.921875 C 93.96875 0.128906 93.96875 -3.65625 93.96875 -7.4375 C 93.96875 -7.976562 93.96875 -8.503906 93.96875 -9.015625 C 93.96875 -10.785156 93.945312 -12.546875 93.90625 -14.296875 C 93.945312 -15.742188 93.289062 -16.375 91.9375 -16.1875 C 90.882812 -16.082031 89.820312 -15.988281 88.75 -15.90625 C 84.21875 -15.519531 79.65625 -15.078125 75.0625 -14.578125 C 70.96875 -14.109375 66.910156 -13.582031 62.890625 -13 C 61.347656 -12.757812 59.816406 -12.546875 58.296875 -12.359375 C 57.773438 -12.253906 57.28125 -12.160156 56.8125 -12.078125 C 56.351562 -11.992188 55.921875 -11.921875 55.515625 -11.859375 C 54.398438 -11.691406 53.863281 -11.046875 53.90625 -9.921875 C 53.863281 -8.191406 53.84375 -6.476562 53.84375 -4.78125 C 53.800781 -2.1875 53.78125 0.382812 53.78125 2.9375 C 53.78125 6.84375 53.78125 10.742188 53.78125 14.640625 C 53.78125 18.804688 53.75 23 53.6875 27.21875 C 53.75 28.570312 53.6875 29.890625 53.5 31.171875 C 53.300781 32.390625 52.53125 32.96875 51.1875 32.90625 C 49.789062 32.96875 49.03125 32.390625 48.90625 31.171875 C 48.71875 29.546875 48.625 27.925781 48.625 26.3125 C 48.625 18.382812 48.601562 10.457031 48.5625 2.53125 C 48.5625 -0.0195312 48.5625 -2.570312 48.5625 -5.125 C 48.5 -5.394531 48.5 -5.695312 48.5625 -6.03125 C 48.5625 -6.539062 48.53125 -7.050781 48.46875 -7.5625 C 48.53125 -9.132812 48.394531 -10.054688 48.0625 -10.328125 C 47.738281 -10.609375 46.832031 -10.59375 45.34375 -10.28125 C 34.96875 -8.695312 24.679688 -6.742188 14.484375 -4.421875 C 12.628906 -3.960938 10.804688 -3.453125 9.015625 -2.890625 C 7.222656 -2.335938 5.472656 -1.617188 3.765625 -0.734375 C 2.835938 -0.179688 1.816406 0.0703125 0.703125 0.03125 C 0.378906 -0.0078125 0.0664062 -0.101562 -0.234375 -0.25 C -0.546875 -0.394531 -0.796875 -0.628906 -0.984375 -0.953125 C -1.109375 -1.328125 -1.078125 -1.648438 -0.890625 -1.921875 C -0.710938 -2.203125 -0.488281 -2.4375 -0.21875 -2.625 C 1.125 -3.675781 2.585938 -4.46875 4.171875 -5 C 4.253906 -5 4.328125 -5.019531 4.390625 -5.0625 C 8.179688 -6.488281 12.050781 -7.570312 16 -8.3125 C 25.082031 -10.3125 34.21875 -12.007812 43.40625 -13.40625 C 44.695312 -13.632812 46.015625 -13.863281 47.359375 -14.09375 C 47.972656 -14.226562 48.300781 -14.597656 48.34375 -15.203125 C 48.425781 -16.410156 48.46875 -17.613281 48.46875 -18.8125 C 48.53125 -25.445312 48.5625 -32.109375 48.5625 -38.796875 C 48.5625 -47.878906 48.5625 -56.960938 48.5625 -66.046875 C 48.5625 -70.085938 48.601562 -74.125 48.6875 -78.15625 C 48.769531 -80.195312 49.832031 -81.050781 51.875 -80.71875 C 52.957031 -80.59375 53.5625 -79.992188 53.6875 -78.921875 C 53.75 -77.984375 53.78125 -77.050781 53.78125 -76.125 C 53.78125 -76 53.78125 -75.863281 53.78125 -75.71875 C 53.78125 -61.34375 53.800781 -46.988281 53.84375 -32.65625 C 53.84375 -28.445312 53.84375 -24.234375 53.84375 -20.015625 C 53.84375 -19.785156 53.84375 -19.550781 53.84375 -19.3125 C 53.84375 -18.851562 53.84375 -18.410156 53.84375 -17.984375 C 53.84375 -16.679688 53.988281 -15.890625 54.28125 -15.609375 C 54.582031 -15.335938 55.363281 -15.320312 56.625 -15.5625 C 58.476562 -15.789062 60.3125 -16.019531 62.125 -16.25 C 64.800781 -16.625 67.507812 -16.972656 70.25 -17.296875 C 75.207031 -17.835938 80.191406 -18.34375 85.203125 -18.8125 C 87.140625 -19 89.113281 -19.207031 91.125 -19.4375 C 91.3125 -19.4375 91.519531 -19.4375 91.75 -19.4375 C 92.0625 -19.4375 92.390625 -19.492188 92.734375 -19.609375 C 93.472656 -19.734375 93.863281 -20.195312 93.90625 -21 C 93.945312 -22.050781 93.96875 -23.113281 93.96875 -24.1875 C 93.96875 -32.300781 93.96875 -40.394531 93.96875 -48.46875 C 93.96875 -51.144531 93.96875 -53.8125 93.96875 -56.46875 C 93.96875 -56.46875 93.988281 -56.46875 94.03125 -56.46875 C 94.03125 -58.488281 94.03125 -60.519531 94.03125 -62.5625 C 94.03125 -71.289062 94.03125 -80.039062 94.03125 -88.8125 C 94.03125 -89.164062 94.03125 -89.554688 94.03125 -89.984375 C 94.09375 -90.523438 94.125 -91.0625 94.125 -91.59375 C 94.164062 -92.6875 94.625 -93.382812 95.5 -93.6875 C 96.375 -94 97.191406 -93.960938 97.953125 -93.578125 C 98.453125 -93.304688 98.742188 -92.894531 98.828125 -92.34375 C 98.929688 -91.269531 98.984375 -90.207031 98.984375 -89.15625 C 99.023438 -70.925781 99.066406 -52.695312 99.109375 -34.46875 C 99.109375 -31.40625 99.109375 -28.367188 99.109375 -25.359375 C 99.109375 -25.234375 99.109375 -25.09375 99.109375 -24.9375 C 99.109375 -24.519531 99.109375 -24.132812 99.109375 -23.78125 C 99.109375 -22.46875 99.15625 -21.53125 99.25 -20.96875 C 99.351562 -20.414062 99.625 -20.09375 100.0625 -20 C 100.507812 -19.90625 101.195312 -19.890625 102.125 -19.953125 C 102.4375 -19.953125 102.804688 -19.953125 103.234375 -19.953125 C 107.628906 -20.035156 112.007812 -20.117188 116.375 -20.203125 C 118.96875 -20.304688 121.582031 -20.378906 124.21875 -20.421875 C 125.289062 -20.460938 126.351562 -20.441406 127.40625 -20.359375 Z M 127.40625 -20.359375 "/></g></g></g></svg>