<svg xmlns="http://www.w3.org/2000/svg" xmlns:xlink="http://www.w3.org/1999/xlink" width="500" zoomAndPan="magnify" viewBox="0 0 375 374.999991" height="500" preserveAspectRatio="xMidYMid meet" version="1.0"><defs><g/><clipPath id="02c93d1644"><path d="M 29 33.875 L 343 33.875 L 343 337.625 L 29 337.625 Z M 29 33.875 " clip-rule="nonzero"/></clipPath></defs><g clip-path="url(#02c93d1644)"><path fill="#000000" d="M 88.894531 77.894531 C 85.296875 80.878906 81.980469 84.082031 78.949219 87.503906 C 80.40625 86.003906 81.914062 84.496094 83.476562 82.980469 C 84.847656 81.644531 86.652344 79.949219 88.894531 77.894531 M 74.234375 80.730469 C 71.789062 82.917969 69.621094 84.996094 67.730469 86.96875 C 65.839844 88.9375 64.148438 90.839844 62.660156 92.675781 C 66.03125 88.863281 69.890625 84.882812 74.234375 80.730469 M 328.007812 151.769531 L 327.949219 152.410156 L 327.933594 153.058594 L 327.96875 153.710938 L 328.058594 154.375 L 328.210938 155.046875 L 328.433594 155.730469 L 328.730469 156.429688 L 329.109375 157.148438 L 329.574219 157.882812 L 330.132812 158.640625 L 330.789062 159.417969 L 331.550781 160.222656 C 330.542969 157.707031 329.363281 154.890625 328.007812 151.769531 M 186.1875 33.984375 L 184.152344 34 C 141.601562 35.839844 104.988281 51.394531 74.320312 80.652344 C 106.53125 52.414062 142.675781 37.878906 182.765625 37.046875 C 203.648438 37.191406 221.4375 40.34375 236.125 46.503906 C 258.097656 55.304688 275.65625 65.878906 288.8125 78.230469 C 298.378906 87.207031 305.507812 95.171875 310.195312 102.128906 C 298.417969 85.542969 280.613281 71.21875 256.773438 59.152344 C 230.851562 47.242188 205.550781 41.289062 180.863281 41.292969 C 147.476562 40.636719 116.839844 52.820312 88.949219 77.851562 C 117.746094 54.867188 149.933594 44.671875 185.515625 47.269531 C 226.875 51.015625 261.585938 65.824219 289.644531 91.695312 C 304.929688 106.136719 317.71875 126.160156 328.011719 151.757812 C 329.992188 145.253906 330.558594 141.347656 329.699219 140.035156 C 333.785156 152.28125 336.210938 164.996094 336.976562 178.179688 C 339.742188 215.445312 328.082031 250.570312 302.003906 283.542969 C 344.796875 235.203125 353.460938 181.320312 327.996094 121.898438 C 314.132812 93.53125 295.925781 72.800781 273.378906 59.699219 C 245.179688 42.824219 216.117188 34.25 186.1875 33.984375 M 301.953125 283.597656 L 300.875 284.757812 C 297.628906 288.265625 294.152344 291.8125 290.4375 295.398438 L 292.953125 293.386719 L 293.5 292.925781 C 293.65625 292.816406 294.292969 292.214844 295.40625 291.117188 C 296.335938 290.171875 297.355469 289.066406 298.457031 287.800781 L 300.164062 285.800781 L 301.953125 283.597656 M 78.894531 87.5625 L 76.246094 90.351562 C 46.140625 124.101562 32.722656 161.992188 35.996094 204.019531 C 31.152344 185.949219 31.40625 167.046875 36.757812 147.316406 C 41.917969 126.441406 50.539062 108.25 62.609375 92.734375 C 42.621094 115.675781 31.652344 145.050781 29.699219 180.851562 C 29.644531 187.3125 30.722656 195.40625 32.933594 205.128906 C 40.734375 232.8125 45.296875 247.503906 46.621094 249.203125 C 55.222656 268.785156 65.347656 283.992188 77 294.824219 C 91.878906 308.75 108.269531 319.203125 126.167969 326.183594 C 144.226562 333.679688 161.339844 337.28125 177.503906 336.988281 C 200.625 336.484375 222.355469 333.035156 242.699219 326.636719 C 257.472656 321.371094 273.375 310.964844 290.40625 295.429688 C 272.785156 309.472656 257.632812 318.457031 244.949219 322.382812 C 221.210938 328.910156 199.300781 332.015625 179.214844 331.699219 C 166.621094 332.574219 148.683594 328.003906 125.402344 317.980469 C 108.394531 310.542969 94.355469 301.359375 83.273438 290.429688 C 74.417969 281.546875 67.6875 273.257812 63.085938 265.566406 C 76.796875 282.023438 96.695312 297.734375 122.773438 312.695312 C 135.304688 319.675781 147.785156 324.683594 160.210938 327.710938 C 163.410156 328.4375 165.214844 328.703125 165.632812 328.5 C 165.855469 328.425781 165.835938 328.265625 165.566406 328.027344 C 166.113281 328.40625 166.9375 328.050781 168.035156 326.949219 C 168.957031 325.828125 169.5625 324.726562 169.84375 323.644531 C 153.386719 323.261719 128.03125 312.03125 93.78125 289.957031 C 74.234375 275.367188 59.523438 258.246094 49.648438 238.597656 C 40.300781 216.234375 38.285156 189.6875 43.601562 158.953125 C 47.511719 135.105469 59.273438 111.304688 78.894531 87.5625 " fill-opacity="1" fill-rule="nonzero"/></g><g fill="#000000" fill-opacity="1"><g transform="translate(8.937548, 212.206491)"><g><path d="M 286.5625 -45.796875 C 287.738281 -45.703125 288.660156 -45.3125 289.328125 -44.625 C 289.992188 -43.9375 290.28125 -43.234375 290.1875 -42.515625 C 289.851562 -41.566406 289.351562 -40.960938 288.6875 -40.703125 C 288.019531 -40.441406 287.3125 -40.3125 286.5625 -40.3125 C 278.644531 -40.601562 270.726562 -40.34375 262.8125 -39.53125 C 257.5 -39.101562 252.117188 -38.796875 246.671875 -38.609375 C 241.265625 -38.460938 235.90625 -38.128906 230.59375 -37.609375 C 229.3125 -37.515625 228.054688 -37.421875 226.828125 -37.328125 C 224.222656 -37.328125 222.96875 -35.976562 223.0625 -33.28125 C 222.96875 -31.195312 222.921875 -29.0625 222.921875 -26.875 C 222.921875 -26.207031 222.921875 -25.613281 222.921875 -25.09375 C 222.921875 -15 222.921875 -4.90625 222.921875 5.1875 C 222.921875 32.300781 222.921875 59.414062 222.921875 86.53125 C 222.921875 91.363281 222.660156 96.175781 222.140625 100.96875 C 221.941406 103.476562 220.46875 104.734375 217.71875 104.734375 C 214.5 104.828125 212.628906 103.664062 212.109375 101.25 C 211.585938 97.320312 211.328125 93.410156 211.328125 89.515625 C 211.328125 62.640625 211.328125 35.738281 211.328125 8.8125 C 211.328125 0.28125 211.328125 -8.222656 211.328125 -16.703125 C 211.328125 -17.941406 211.328125 -19.128906 211.328125 -20.265625 C 211.328125 -24.242188 211.28125 -28.203125 211.1875 -32.140625 C 211.28125 -35.410156 209.8125 -36.832031 206.78125 -36.40625 C 204.40625 -36.164062 202.007812 -35.953125 199.59375 -35.765625 C 189.40625 -34.910156 179.144531 -33.914062 168.8125 -32.78125 C 159.613281 -31.738281 150.488281 -30.550781 141.4375 -29.21875 C 137.96875 -28.695312 134.53125 -28.222656 131.125 -27.796875 C 129.9375 -27.566406 128.820312 -27.351562 127.78125 -27.15625 C 126.738281 -26.96875 125.765625 -26.804688 124.859375 -26.671875 C 122.347656 -26.285156 121.140625 -24.835938 121.234375 -22.328125 C 121.140625 -18.441406 121.09375 -14.578125 121.09375 -10.734375 C 121 -4.898438 120.953125 0.878906 120.953125 6.609375 C 120.953125 15.378906 120.953125 24.148438 120.953125 32.921875 C 120.953125 42.304688 120.878906 51.738281 120.734375 61.21875 C 120.878906 64.25 120.738281 67.210938 120.3125 70.109375 C 119.882812 72.859375 118.15625 74.160156 115.125 74.015625 C 111.988281 74.160156 110.28125 72.859375 110 70.109375 C 109.570312 66.460938 109.359375 62.8125 109.359375 59.15625 C 109.359375 41.332031 109.3125 23.507812 109.21875 5.6875 C 109.21875 -0.0507812 109.21875 -5.785156 109.21875 -11.515625 C 109.070312 -12.128906 109.070312 -12.816406 109.21875 -13.578125 C 109.21875 -14.710938 109.144531 -15.851562 109 -17 C 109.144531 -20.550781 108.847656 -22.632812 108.109375 -23.25 C 107.378906 -23.863281 105.332031 -23.816406 101.96875 -23.109375 C 78.644531 -19.554688 55.507812 -15.171875 32.5625 -9.953125 C 28.394531 -8.910156 24.296875 -7.757812 20.265625 -6.5 C 16.234375 -5.25 12.300781 -3.628906 8.46875 -1.640625 C 6.375 -0.398438 4.070312 0.171875 1.5625 0.078125 C 0.851562 -0.0234375 0.15625 -0.238281 -0.53125 -0.5625 C -1.21875 -0.894531 -1.773438 -1.421875 -2.203125 -2.140625 C -2.484375 -2.984375 -2.421875 -3.710938 -2.015625 -4.328125 C -1.617188 -4.953125 -1.113281 -5.476562 -0.5 -5.90625 C 2.53125 -8.269531 5.828125 -10.046875 9.390625 -11.234375 C 9.578125 -11.234375 9.742188 -11.28125 9.890625 -11.375 C 18.421875 -14.601562 27.117188 -17.046875 35.984375 -18.703125 C 56.410156 -23.203125 76.957031 -27.019531 97.625 -30.15625 C 100.519531 -30.675781 103.484375 -31.195312 106.515625 -31.71875 C 107.890625 -32 108.625 -32.828125 108.71875 -34.203125 C 108.90625 -36.898438 109 -39.601562 109 -42.3125 C 109.144531 -57.238281 109.21875 -72.21875 109.21875 -87.25 C 109.21875 -107.675781 109.21875 -128.109375 109.21875 -148.546875 C 109.21875 -157.640625 109.3125 -166.71875 109.5 -175.78125 C 109.6875 -180.375 112.082031 -182.289062 116.6875 -181.53125 C 119.101562 -181.25 120.453125 -179.898438 120.734375 -177.484375 C 120.878906 -175.398438 120.953125 -173.3125 120.953125 -171.21875 C 120.953125 -170.9375 120.953125 -170.628906 120.953125 -170.296875 C 120.953125 -137.960938 121 -105.679688 121.09375 -73.453125 C 121.09375 -63.972656 121.09375 -54.492188 121.09375 -45.015625 C 121.09375 -44.492188 121.09375 -43.972656 121.09375 -43.453125 C 121.09375 -42.398438 121.09375 -41.398438 121.09375 -40.453125 C 121.09375 -37.515625 121.421875 -35.738281 122.078125 -35.125 C 122.742188 -34.507812 124.5 -34.460938 127.34375 -34.984375 C 131.519531 -35.503906 135.644531 -36.023438 139.71875 -36.546875 C 145.738281 -37.398438 151.832031 -38.179688 158 -38.890625 C 169.132812 -40.128906 180.34375 -41.269531 191.625 -42.3125 C 195.988281 -42.738281 200.421875 -43.210938 204.921875 -43.734375 C 205.347656 -43.734375 205.820312 -43.734375 206.34375 -43.734375 C 207.0625 -43.734375 207.796875 -43.847656 208.546875 -44.078125 C 210.210938 -44.367188 211.09375 -45.414062 211.1875 -47.21875 C 211.28125 -49.582031 211.328125 -51.972656 211.328125 -54.390625 C 211.328125 -72.640625 211.328125 -90.84375 211.328125 -109 C 211.328125 -115.019531 211.328125 -121.019531 211.328125 -127 C 211.328125 -127 211.375 -127 211.46875 -127 C 211.46875 -131.550781 211.46875 -136.125 211.46875 -140.71875 C 211.46875 -160.34375 211.46875 -180.015625 211.46875 -199.734375 C 211.46875 -200.546875 211.46875 -201.425781 211.46875 -202.375 C 211.613281 -203.601562 211.6875 -204.8125 211.6875 -206 C 211.78125 -208.457031 212.804688 -210.03125 214.765625 -210.71875 C 216.734375 -211.40625 218.570312 -211.320312 220.28125 -210.46875 C 221.425781 -209.851562 222.09375 -208.929688 222.28125 -207.703125 C 222.507812 -205.285156 222.625 -202.890625 222.625 -200.515625 C 222.726562 -159.515625 222.828125 -118.507812 222.921875 -77.5 C 222.921875 -70.625 222.921875 -63.800781 222.921875 -57.03125 C 222.921875 -56.738281 222.921875 -56.429688 222.921875 -56.109375 C 222.921875 -55.160156 222.921875 -54.28125 222.921875 -53.46875 C 222.921875 -50.53125 223.023438 -48.429688 223.234375 -47.171875 C 223.453125 -45.921875 224.054688 -45.1875 225.046875 -44.96875 C 226.046875 -44.757812 227.585938 -44.726562 229.671875 -44.875 C 230.378906 -44.875 231.207031 -44.875 232.15625 -44.875 C 242.0625 -45.0625 251.921875 -45.25 261.734375 -45.4375 C 267.566406 -45.675781 273.445312 -45.84375 279.375 -45.9375 C 281.789062 -46.03125 284.1875 -45.984375 286.5625 -45.796875 Z M 286.5625 -45.796875 "/></g></g></g><g fill="#000000" fill-opacity="1"><g transform="translate(41.097933, 366.979985)"><g><path d="M 6.109375 -22.625 C 7.835938 -22.625 9.113281 -22.109375 9.9375 -21.078125 C 10.757812 -20.054688 11.171875 -18.691406 11.171875 -16.984375 L 11.171875 -14.96875 L 8.796875 -14.96875 L 8.796875 -17.125 C 8.796875 -18.144531 8.585938 -18.9375 8.171875 -19.5 C 7.753906 -20.070312 7.085938 -20.359375 6.171875 -20.359375 C 5.273438 -20.359375 4.613281 -20.070312 4.1875 -19.5 C 3.757812 -18.9375 3.546875 -18.144531 3.546875 -17.125 L 3.546875 -5.28125 C 3.546875 -4.257812 3.757812 -3.460938 4.1875 -2.890625 C 4.613281 -2.328125 5.273438 -2.046875 6.171875 -2.046875 C 7.085938 -2.046875 7.753906 -2.328125 8.171875 -2.890625 C 8.585938 -3.460938 8.796875 -4.257812 8.796875 -5.28125 L 8.796875 -8.1875 L 11.171875 -8.1875 L 11.171875 -5.40625 C 11.171875 -3.695312 10.757812 -2.332031 9.9375 -1.3125 C 9.113281 -0.289062 7.835938 0.21875 6.109375 0.21875 C 4.398438 0.21875 3.132812 -0.289062 2.3125 -1.3125 C 1.5 -2.332031 1.09375 -3.695312 1.09375 -5.40625 L 1.09375 -16.984375 C 1.09375 -17.835938 1.191406 -18.613281 1.390625 -19.3125 C 1.597656 -20.007812 1.90625 -20.601562 2.3125 -21.09375 C 2.726562 -21.582031 3.25 -21.957031 3.875 -22.21875 C 4.507812 -22.488281 5.253906 -22.625 6.109375 -22.625 Z M 6.109375 -22.625 "/></g></g></g><g fill="#000000" fill-opacity="1"><g transform="translate(53.254945, 366.979985)"><g><path d="M 1.09375 -16.984375 C 1.09375 -18.710938 1.507812 -20.082031 2.34375 -21.09375 C 3.1875 -22.113281 4.472656 -22.625 6.203125 -22.625 C 7.929688 -22.625 9.222656 -22.113281 10.078125 -21.09375 C 10.929688 -20.082031 11.359375 -18.710938 11.359375 -16.984375 L 11.359375 -5.40625 C 11.359375 -3.695312 10.929688 -2.332031 10.078125 -1.3125 C 9.222656 -0.289062 7.929688 0.21875 6.203125 0.21875 C 4.472656 0.21875 3.1875 -0.289062 2.34375 -1.3125 C 1.507812 -2.332031 1.09375 -3.695312 1.09375 -5.40625 Z M 3.546875 -5.28125 C 3.546875 -4.257812 3.765625 -3.460938 4.203125 -2.890625 C 4.640625 -2.328125 5.304688 -2.046875 6.203125 -2.046875 C 7.117188 -2.046875 7.789062 -2.328125 8.21875 -2.890625 C 8.644531 -3.460938 8.859375 -4.257812 8.859375 -5.28125 L 8.859375 -17.125 C 8.859375 -18.144531 8.644531 -18.9375 8.21875 -19.5 C 7.789062 -20.070312 7.117188 -20.359375 6.203125 -20.359375 C 5.304688 -20.359375 4.640625 -20.070312 4.203125 -19.5 C 3.765625 -18.9375 3.546875 -18.144531 3.546875 -17.125 Z M 3.546875 -5.28125 "/></g></g></g><g fill="#000000" fill-opacity="1"><g transform="translate(65.699891, 366.979985)"><g><path d="M 9.53125 -0.03125 L 7.140625 -0.03125 L 3.421875 -17.859375 L 3.421875 0 L 1.25 0 L 1.25 -22.40625 L 4.734375 -22.40625 L 8.421875 -4.515625 L 11.96875 -22.40625 L 15.453125 -22.40625 L 15.453125 0 L 13.09375 0 L 13.09375 -18.015625 Z M 9.53125 -0.03125 "/></g></g></g><g fill="#000000" fill-opacity="1"><g transform="translate(82.431781, 366.979985)"><g><path d="M 9.53125 -0.03125 L 7.140625 -0.03125 L 3.421875 -17.859375 L 3.421875 0 L 1.25 0 L 1.25 -22.40625 L 4.734375 -22.40625 L 8.421875 -4.515625 L 11.96875 -22.40625 L 15.453125 -22.40625 L 15.453125 0 L 13.09375 0 L 13.09375 -18.015625 Z M 9.53125 -0.03125 "/></g></g></g><g fill="#000000" fill-opacity="1"><g transform="translate(99.163672, 366.979985)"><g><path d="M 9.25 -12.484375 L 9.25 -10.234375 L 3.78125 -10.234375 L 3.78125 -2.265625 L 10.5 -2.265625 L 10.5 0 L 1.28125 0 L 1.28125 -22.40625 L 10.5 -22.40625 L 10.5 -20.125 L 3.78125 -20.125 L 3.78125 -12.484375 Z M 9.25 -12.484375 "/></g></g></g><g fill="#000000" fill-opacity="1"><g transform="translate(110.680845, 366.979985)"><g><path d="M 6.265625 -22.40625 C 8.035156 -22.40625 9.3125 -21.96875 10.09375 -21.09375 C 10.875 -20.21875 11.265625 -18.945312 11.265625 -17.28125 L 11.265625 -15.453125 C 11.265625 -14.210938 11.039062 -13.207031 10.59375 -12.4375 C 10.144531 -11.675781 9.441406 -11.144531 8.484375 -10.84375 C 9.503906 -10.550781 10.226562 -10.003906 10.65625 -9.203125 C 11.082031 -8.398438 11.296875 -7.390625 11.296875 -6.171875 L 11.296875 -2.6875 C 11.296875 -2.195312 11.316406 -1.722656 11.359375 -1.265625 C 11.398438 -0.804688 11.53125 -0.382812 11.75 0 L 9.21875 0 C 9.0625 -0.320312 8.953125 -0.664062 8.890625 -1.03125 C 8.828125 -1.40625 8.796875 -1.96875 8.796875 -2.71875 L 8.796875 -6.234375 C 8.796875 -7.492188 8.515625 -8.363281 7.953125 -8.84375 C 7.390625 -9.320312 6.582031 -9.5625 5.53125 -9.5625 L 3.78125 -9.5625 L 3.78125 0 L 1.28125 0 L 1.28125 -22.40625 Z M 5.625 -11.84375 C 6.632812 -11.84375 7.414062 -12.050781 7.96875 -12.46875 C 8.519531 -12.882812 8.796875 -13.695312 8.796875 -14.90625 L 8.796875 -17.0625 C 8.796875 -18.082031 8.597656 -18.847656 8.203125 -19.359375 C 7.804688 -19.867188 7.140625 -20.125 6.203125 -20.125 L 3.78125 -20.125 L 3.78125 -11.84375 Z M 5.625 -11.84375 "/></g></g></g><g fill="#000000" fill-opacity="1"><g transform="translate(123.285745, 366.979985)"><g><path d="M 6.109375 -22.625 C 7.835938 -22.625 9.113281 -22.109375 9.9375 -21.078125 C 10.757812 -20.054688 11.171875 -18.691406 11.171875 -16.984375 L 11.171875 -14.96875 L 8.796875 -14.96875 L 8.796875 -17.125 C 8.796875 -18.144531 8.585938 -18.9375 8.171875 -19.5 C 7.753906 -20.070312 7.085938 -20.359375 6.171875 -20.359375 C 5.273438 -20.359375 4.613281 -20.070312 4.1875 -19.5 C 3.757812 -18.9375 3.546875 -18.144531 3.546875 -17.125 L 3.546875 -5.28125 C 3.546875 -4.257812 3.757812 -3.460938 4.1875 -2.890625 C 4.613281 -2.328125 5.273438 -2.046875 6.171875 -2.046875 C 7.085938 -2.046875 7.753906 -2.328125 8.171875 -2.890625 C 8.585938 -3.460938 8.796875 -4.257812 8.796875 -5.28125 L 8.796875 -8.1875 L 11.171875 -8.1875 L 11.171875 -5.40625 C 11.171875 -3.695312 10.757812 -2.332031 9.9375 -1.3125 C 9.113281 -0.289062 7.835938 0.21875 6.109375 0.21875 C 4.398438 0.21875 3.132812 -0.289062 2.3125 -1.3125 C 1.5 -2.332031 1.09375 -3.695312 1.09375 -5.40625 L 1.09375 -16.984375 C 1.09375 -17.835938 1.191406 -18.613281 1.390625 -19.3125 C 1.597656 -20.007812 1.90625 -20.601562 2.3125 -21.09375 C 2.726562 -21.582031 3.25 -21.957031 3.875 -22.21875 C 4.507812 -22.488281 5.253906 -22.625 6.109375 -22.625 Z M 6.109375 -22.625 "/></g></g></g><g fill="#000000" fill-opacity="1"><g transform="translate(135.442757, 366.979985)"><g><path d="M 9.25 -12.484375 L 9.25 -10.234375 L 3.78125 -10.234375 L 3.78125 -2.265625 L 10.5 -2.265625 L 10.5 0 L 1.28125 0 L 1.28125 -22.40625 L 10.5 -22.40625 L 10.5 -20.125 L 3.78125 -20.125 L 3.78125 -12.484375 Z M 9.25 -12.484375 "/></g></g></g><g fill="#000000" fill-opacity="1"><g transform="translate(146.95993, 366.979985)"><g/></g></g><g fill="#000000" fill-opacity="1"><g transform="translate(151.922145, 366.979985)"><g><path d="M 5.25 -14.5625 C 5.71875 -14.5625 6.15625 -14.46875 6.5625 -14.28125 C 6.96875 -14.101562 7.316406 -13.863281 7.609375 -13.5625 C 7.910156 -13.269531 8.148438 -12.921875 8.328125 -12.515625 C 8.515625 -12.109375 8.609375 -11.671875 8.609375 -11.203125 C 8.609375 -10.734375 8.515625 -10.296875 8.328125 -9.890625 C 8.148438 -9.484375 7.910156 -9.125 7.609375 -8.8125 C 7.316406 -8.507812 6.96875 -8.269531 6.5625 -8.09375 C 6.15625 -7.925781 5.71875 -7.84375 5.25 -7.84375 C 4.78125 -7.84375 4.34375 -7.925781 3.9375 -8.09375 C 3.53125 -8.269531 3.171875 -8.507812 2.859375 -8.8125 C 2.554688 -9.125 2.316406 -9.484375 2.140625 -9.890625 C 1.972656 -10.296875 1.890625 -10.734375 1.890625 -11.203125 C 1.890625 -11.671875 1.972656 -12.109375 2.140625 -12.515625 C 2.316406 -12.921875 2.554688 -13.269531 2.859375 -13.5625 C 3.171875 -13.863281 3.53125 -14.101562 3.9375 -14.28125 C 4.34375 -14.46875 4.78125 -14.5625 5.25 -14.5625 Z M 5.25 -14.5625 "/></g></g></g><g fill="#000000" fill-opacity="1"><g transform="translate(162.422144, 366.979985)"><g/></g></g><g fill="#000000" fill-opacity="1"><g transform="translate(167.380926, 366.979985)"><g><path d="M 9.25 -12.484375 L 9.25 -10.234375 L 3.78125 -10.234375 L 3.78125 -2.265625 L 10.5 -2.265625 L 10.5 0 L 1.28125 0 L 1.28125 -22.40625 L 10.5 -22.40625 L 10.5 -20.125 L 3.78125 -20.125 L 3.78125 -12.484375 Z M 9.25 -12.484375 "/></g></g></g><g fill="#000000" fill-opacity="1"><g transform="translate(178.898099, 366.979985)"><g><path d="M 3.484375 0 L 1.25 0 L 1.25 -22.40625 L 4.421875 -22.40625 L 9.59375 -6.203125 L 9.59375 -22.40625 L 11.8125 -22.40625 L 11.8125 0 L 9.21875 0 L 3.484375 -18.109375 Z M 3.484375 0 "/></g></g></g><g fill="#000000" fill-opacity="1"><g transform="translate(191.982884, 366.979985)"><g><path d="M 4.515625 0 L 4.515625 -20.125 L 0.390625 -20.125 L 0.390625 -22.40625 L 11.109375 -22.40625 L 11.109375 -20.125 L 6.96875 -20.125 L 6.96875 0 Z M 4.515625 0 "/></g></g></g><g fill="#000000" fill-opacity="1"><g transform="translate(203.500057, 366.979985)"><g><path d="M 9.25 -12.484375 L 9.25 -10.234375 L 3.78125 -10.234375 L 3.78125 -2.265625 L 10.5 -2.265625 L 10.5 0 L 1.28125 0 L 1.28125 -22.40625 L 10.5 -22.40625 L 10.5 -20.125 L 3.78125 -20.125 L 3.78125 -12.484375 Z M 9.25 -12.484375 "/></g></g></g><g fill="#000000" fill-opacity="1"><g transform="translate(215.01723, 366.979985)"><g><path d="M 6.265625 -22.40625 C 8.035156 -22.40625 9.3125 -21.96875 10.09375 -21.09375 C 10.875 -20.21875 11.265625 -18.945312 11.265625 -17.28125 L 11.265625 -15.453125 C 11.265625 -14.210938 11.039062 -13.207031 10.59375 -12.4375 C 10.144531 -11.675781 9.441406 -11.144531 8.484375 -10.84375 C 9.503906 -10.550781 10.226562 -10.003906 10.65625 -9.203125 C 11.082031 -8.398438 11.296875 -7.390625 11.296875 -6.171875 L 11.296875 -2.6875 C 11.296875 -2.195312 11.316406 -1.722656 11.359375 -1.265625 C 11.398438 -0.804688 11.53125 -0.382812 11.75 0 L 9.21875 0 C 9.0625 -0.320312 8.953125 -0.664062 8.890625 -1.03125 C 8.828125 -1.40625 8.796875 -1.96875 8.796875 -2.71875 L 8.796875 -6.234375 C 8.796875 -7.492188 8.515625 -8.363281 7.953125 -8.84375 C 7.390625 -9.320312 6.582031 -9.5625 5.53125 -9.5625 L 3.78125 -9.5625 L 3.78125 0 L 1.28125 0 L 1.28125 -22.40625 Z M 5.625 -11.84375 C 6.632812 -11.84375 7.414062 -12.050781 7.96875 -12.46875 C 8.519531 -12.882812 8.796875 -13.695312 8.796875 -14.90625 L 8.796875 -17.0625 C 8.796875 -18.082031 8.597656 -18.847656 8.203125 -19.359375 C 7.804688 -19.867188 7.140625 -20.125 6.203125 -20.125 L 3.78125 -20.125 L 3.78125 -11.84375 Z M 5.625 -11.84375 "/></g></g></g><g fill="#000000" fill-opacity="1"><g transform="translate(227.622129, 366.979985)"><g><path d="M 6.171875 -22.40625 C 7.941406 -22.40625 9.222656 -21.914062 10.015625 -20.9375 C 10.804688 -19.96875 11.203125 -18.628906 11.203125 -16.921875 L 11.203125 -14.234375 C 11.203125 -12.441406 10.78125 -11.09375 9.9375 -10.1875 C 9.09375 -9.28125 7.773438 -8.828125 5.984375 -8.828125 L 3.78125 -8.828125 L 3.78125 0 L 1.28125 0 L 1.28125 -22.40625 Z M 5.984375 -11.078125 C 6.921875 -11.078125 7.613281 -11.304688 8.0625 -11.765625 C 8.507812 -12.222656 8.734375 -12.992188 8.734375 -14.078125 L 8.734375 -17.0625 C 8.734375 -18.082031 8.535156 -18.847656 8.140625 -19.359375 C 7.742188 -19.867188 7.085938 -20.125 6.171875 -20.125 L 3.78125 -20.125 L 3.78125 -11.078125 Z M 5.984375 -11.078125 "/></g></g></g><g fill="#000000" fill-opacity="1"><g transform="translate(239.491208, 366.979985)"><g><path d="M 6.265625 -22.40625 C 8.035156 -22.40625 9.3125 -21.96875 10.09375 -21.09375 C 10.875 -20.21875 11.265625 -18.945312 11.265625 -17.28125 L 11.265625 -15.453125 C 11.265625 -14.210938 11.039062 -13.207031 10.59375 -12.4375 C 10.144531 -11.675781 9.441406 -11.144531 8.484375 -10.84375 C 9.503906 -10.550781 10.226562 -10.003906 10.65625 -9.203125 C 11.082031 -8.398438 11.296875 -7.390625 11.296875 -6.171875 L 11.296875 -2.6875 C 11.296875 -2.195312 11.316406 -1.722656 11.359375 -1.265625 C 11.398438 -0.804688 11.53125 -0.382812 11.75 0 L 9.21875 0 C 9.0625 -0.320312 8.953125 -0.664062 8.890625 -1.03125 C 8.828125 -1.40625 8.796875 -1.96875 8.796875 -2.71875 L 8.796875 -6.234375 C 8.796875 -7.492188 8.515625 -8.363281 7.953125 -8.84375 C 7.390625 -9.320312 6.582031 -9.5625 5.53125 -9.5625 L 3.78125 -9.5625 L 3.78125 0 L 1.28125 0 L 1.28125 -22.40625 Z M 5.625 -11.84375 C 6.632812 -11.84375 7.414062 -12.050781 7.96875 -12.46875 C 8.519531 -12.882812 8.796875 -13.695312 8.796875 -14.90625 L 8.796875 -17.0625 C 8.796875 -18.082031 8.597656 -18.847656 8.203125 -19.359375 C 7.804688 -19.867188 7.140625 -20.125 6.203125 -20.125 L 3.78125 -20.125 L 3.78125 -11.84375 Z M 5.625 -11.84375 "/></g></g></g><g fill="#000000" fill-opacity="1"><g transform="translate(252.096108, 366.979985)"><g><path d="M 3.78125 -22.40625 L 3.78125 0 L 1.28125 0 L 1.28125 -22.40625 Z M 3.78125 -22.40625 "/></g></g></g><g fill="#000000" fill-opacity="1"><g transform="translate(257.15086, 366.979985)"><g><path d="M 5.984375 -22.625 C 7.691406 -22.625 8.945312 -22.113281 9.75 -21.09375 C 10.5625 -20.082031 10.96875 -18.726562 10.96875 -17.03125 L 10.96875 -16.421875 L 8.609375 -16.421875 L 8.609375 -17.15625 C 8.609375 -18.175781 8.40625 -18.960938 8 -19.515625 C 7.59375 -20.078125 6.941406 -20.359375 6.046875 -20.359375 C 5.148438 -20.359375 4.5 -20.078125 4.09375 -19.515625 C 3.6875 -18.960938 3.484375 -18.1875 3.484375 -17.1875 C 3.484375 -16.351562 3.671875 -15.625 4.046875 -15 C 4.421875 -14.382812 4.882812 -13.816406 5.4375 -13.296875 C 5.988281 -12.773438 6.585938 -12.265625 7.234375 -11.765625 C 7.890625 -11.265625 8.492188 -10.710938 9.046875 -10.109375 C 9.609375 -9.515625 10.078125 -8.835938 10.453125 -8.078125 C 10.828125 -7.316406 11.015625 -6.414062 11.015625 -5.375 C 11.015625 -3.664062 10.601562 -2.304688 9.78125 -1.296875 C 8.957031 -0.285156 7.679688 0.21875 5.953125 0.21875 C 4.222656 0.21875 2.953125 -0.285156 2.140625 -1.296875 C 1.328125 -2.304688 0.921875 -3.664062 0.921875 -5.375 L 0.921875 -6.65625 L 3.265625 -6.65625 L 3.265625 -5.25 C 3.265625 -4.226562 3.476562 -3.4375 3.90625 -2.875 C 4.332031 -2.320312 4.992188 -2.046875 5.890625 -2.046875 C 6.785156 -2.046875 7.445312 -2.320312 7.875 -2.875 C 8.300781 -3.4375 8.515625 -4.226562 8.515625 -5.25 C 8.515625 -6.082031 8.328125 -6.800781 7.953125 -7.40625 C 7.578125 -8.007812 7.113281 -8.570312 6.5625 -9.09375 C 6.007812 -9.625 5.410156 -10.140625 4.765625 -10.640625 C 4.128906 -11.140625 3.53125 -11.6875 2.96875 -12.28125 C 2.414062 -12.882812 1.953125 -13.5625 1.578125 -14.3125 C 1.210938 -15.070312 1.03125 -15.976562 1.03125 -17.03125 C 1.03125 -18.75 1.429688 -20.109375 2.234375 -21.109375 C 3.046875 -22.117188 4.296875 -22.625 5.984375 -22.625 Z M 5.984375 -22.625 "/></g></g></g><g fill="#000000" fill-opacity="1"><g transform="translate(269.051936, 366.979985)"><g><path d="M 9.25 -12.484375 L 9.25 -10.234375 L 3.78125 -10.234375 L 3.78125 -2.265625 L 10.5 -2.265625 L 10.5 0 L 1.28125 0 L 1.28125 -22.40625 L 10.5 -22.40625 L 10.5 -20.125 L 3.78125 -20.125 L 3.78125 -12.484375 Z M 9.25 -12.484375 "/></g></g></g><g fill="#000000" fill-opacity="1"><g transform="translate(280.569109, 366.979985)"><g/></g></g><g fill="#000000" fill-opacity="1"><g transform="translate(285.527891, 366.979985)"><g><path d="M 4.546875 0 L 4.546875 -20.125 L 0.421875 -20.125 L 0.421875 -22.40625 L 11.171875 -22.40625 L 11.171875 -20.125 L 7.046875 -20.125 L 7.046875 0 Z M 4.546875 0 "/></g></g></g><g fill="#000000" fill-opacity="1"><g transform="translate(297.141034, 366.979985)"><g><path d="M 9.25 -12.484375 L 9.25 -10.234375 L 3.78125 -10.234375 L 3.78125 -2.265625 L 10.5 -2.265625 L 10.5 0 L 1.28125 0 L 1.28125 -22.40625 L 10.5 -22.40625 L 10.5 -20.125 L 3.78125 -20.125 L 3.78125 -12.484375 Z M 9.25 -12.484375 "/></g></g></g><g fill="#000000" fill-opacity="1"><g transform="translate(308.658208, 366.979985)"><g><path d="M 6.109375 -22.625 C 7.835938 -22.625 9.113281 -22.109375 9.9375 -21.078125 C 10.757812 -20.054688 11.171875 -18.691406 11.171875 -16.984375 L 11.171875 -14.96875 L 8.796875 -14.96875 L 8.796875 -17.125 C 8.796875 -18.144531 8.585938 -18.9375 8.171875 -19.5 C 7.753906 -20.070312 7.085938 -20.359375 6.171875 -20.359375 C 5.273438 -20.359375 4.613281 -20.070312 4.1875 -19.5 C 3.757812 -18.9375 3.546875 -18.144531 3.546875 -17.125 L 3.546875 -5.28125 C 3.546875 -4.257812 3.757812 -3.460938 4.1875 -2.890625 C 4.613281 -2.328125 5.273438 -2.046875 6.171875 -2.046875 C 7.085938 -2.046875 7.753906 -2.328125 8.171875 -2.890625 C 8.585938 -3.460938 8.796875 -4.257812 8.796875 -5.28125 L 8.796875 -8.1875 L 11.171875 -8.1875 L 11.171875 -5.40625 C 11.171875 -3.695312 10.757812 -2.332031 9.9375 -1.3125 C 9.113281 -0.289062 7.835938 0.21875 6.109375 0.21875 C 4.398438 0.21875 3.132812 -0.289062 2.3125 -1.3125 C 1.5 -2.332031 1.09375 -3.695312 1.09375 -5.40625 L 1.09375 -16.984375 C 1.09375 -17.835938 1.191406 -18.613281 1.390625 -19.3125 C 1.597656 -20.007812 1.90625 -20.601562 2.3125 -21.09375 C 2.726562 -21.582031 3.25 -21.957031 3.875 -22.21875 C 4.507812 -22.488281 5.253906 -22.625 6.109375 -22.625 Z M 6.109375 -22.625 "/></g></g></g><g fill="#000000" fill-opacity="1"><g transform="translate(320.81522, 366.979985)"><g><path d="M 3.78125 -10.078125 L 3.78125 0 L 1.28125 0 L 1.28125 -22.40625 L 3.78125 -22.40625 L 3.78125 -12.3125 L 9.28125 -12.3125 L 9.28125 -22.40625 L 11.78125 -22.40625 L 11.78125 0 L 9.28125 0 L 9.28125 -10.078125 Z M 3.78125 -10.078125 "/></g></g></g></svg>